<?xml version="1.0" encoding="UTF-8" standalone="no"?>
<svg
   xmlns:dc="http://purl.org/dc/elements/1.1/"
   xmlns:cc="http://creativecommons.org/ns#"
   xmlns:rdf="http://www.w3.org/1999/02/22-rdf-syntax-ns#"
   xmlns:svg="http://www.w3.org/2000/svg"
   xmlns="http://www.w3.org/2000/svg"
   xmlns:sodipodi="http://sodipodi.sourceforge.net/DTD/sodipodi-0.dtd"
   xmlns:inkscape="http://www.inkscape.org/namespaces/inkscape"
   version="1.1"
   x="0px"
   y="0px"
   viewBox="0 0 86 86.000999"
   enable-background="new 0 0 100 100"
   xml:space="preserve"
   id="svg2"
   inkscape:version="0.91 r13725"
   sodipodi:docname="ROP_xenon.svg"
   width="86"
   height="86.000999"><metadata
     id="metadata24"><rdf:RDF><cc:Work
         rdf:about=""><dc:format>image/svg+xml</dc:format><dc:type
           rdf:resource="http://purl.org/dc/dcmitype/StillImage" /><dc:title /></cc:Work></rdf:RDF></metadata><defs
     id="defs22" /><sodipodi:namedview
     pagecolor="#ffffff"
     bordercolor="#666666"
     borderopacity="1"
     objecttolerance="10"
     gridtolerance="10"
     guidetolerance="10"
     inkscape:pageopacity="0"
     inkscape:pageshadow="2"
     inkscape:window-width="1920"
     inkscape:window-height="1176"
     id="namedview20"
     showgrid="false"
     fit-margin-top="2"
     fit-margin-left="2"
     fit-margin-right="2"
     fit-margin-bottom="2"
     inkscape:zoom="1.888"
     inkscape:cx="42.527"
     inkscape:cy="31.864001"
     inkscape:window-x="1920"
     inkscape:window-y="24"
     inkscape:window-maximized="1"
     inkscape:current-layer="svg2" /><path
     d="M 19.831,41.224 C 26.748,26.313 36.673,13.118 48.888,2.423 46.964,2.146 44.999,2 43,2 30.108,2 18.608,7.953 11.092,17.256 c 2.031,8.325 4.969,16.36 8.739,23.968 z"
     id="path4"
     inkscape:connector-curvature="0"
     style="fill:#00aad4" /><path
     d="m 32.953,22.048 c 16.375,-1.465 32.769,0.534 48.14,5.766 C 75.812,14.579 63.834,4.741 49.346,2.49 43.15,8.413 37.658,14.977 32.953,22.048 Z"
     id="path6"
     inkscape:connector-curvature="0"
     style="fill:#55ddff" /><path
     d="M 29.877,62.176 C 25.672,56.197 22.058,49.871 19.064,43.288 L 18.94,43.075 18.955,43.051 C 15.271,34.906 12.537,26.372 10.802,17.617 5.29,24.599 2,33.415 2,43 c 0,5.203 0.971,10.178 2.739,14.758 8.228,2.405 16.66,3.879 25.138,4.418 z"
     id="path8"
     inkscape:connector-curvature="0"
     style="fill:#ffdd55" /><path
     d="M 56.122,23.825 C 65.576,37.269 72.041,52.462 75.196,68.387 80.709,61.405 84,52.587 84,43 84,37.798 83.028,32.823 81.261,28.243 73.031,25.839 64.6,24.364 56.122,23.825 Z"
     id="path10"
     inkscape:connector-curvature="0"
     style="fill:#ff0066" /><path
     d="M 53.045,63.953 C 45.89,64.594 38.732,64.57 31.656,63.908 l -0.688,0 -0.04,-0.068 C 22.061,62.953 13.33,61.057 4.907,58.19 10.188,71.424 22.165,81.26 36.652,83.512 42.848,77.588 48.34,71.024 53.045,63.953 Z"
     id="path12"
     inkscape:connector-curvature="0"
     style="fill:#ffcc00" /><path
     d="m 66.168,44.777 c -3.086,6.653 -6.771,12.965 -10.99,18.866 l -0.154,0.266 -0.037,0 c -5.193,7.221 -11.191,13.818 -17.873,19.67 1.922,0.277 3.887,0.422 5.886,0.422 12.891,0 24.391,-5.951 31.907,-15.254 -2.031,-8.327 -4.969,-16.362 -8.739,-23.97 z"
     id="path14"
     inkscape:connector-curvature="0"
     style="fill:#ff5599" /></svg>